<mxfile host="Electron" agent="Mozilla/5.0 (Windows NT 10.0; Win64; x64) AppleWebKit/537.36 (KHTML, like Gecko) draw.io/26.0.16 Chrome/132.0.6834.196 Electron/34.2.0 Safari/537.36" version="26.0.16">
  <diagram name="1 oldal" id="TnrfBXZe4jcJBcd4wCo4">
    <mxGraphModel dx="1863" dy="1784" grid="1" gridSize="10" guides="1" tooltips="1" connect="1" arrows="1" fold="1" page="1" pageScale="1" pageWidth="827" pageHeight="1169" math="0" shadow="0">
      <root>
        <mxCell id="0" />
        <mxCell id="1" parent="0" />
        <mxCell id="qDr4mBQl2xViQqBpSmpq-1" value="Oktató-Tantárgya" style="swimlane;whiteSpace=wrap;html=1;" vertex="1" parent="1">
          <mxGeometry x="280" y="-180" width="220" height="110" as="geometry" />
        </mxCell>
        <mxCell id="qDr4mBQl2xViQqBpSmpq-11" value="FK" style="text;whiteSpace=wrap;html=1;align=center;" vertex="1" parent="qDr4mBQl2xViQqBpSmpq-1">
          <mxGeometry y="23" width="50" height="40" as="geometry" />
        </mxCell>
        <mxCell id="qDr4mBQl2xViQqBpSmpq-12" value="PK" style="text;whiteSpace=wrap;html=1;align=center;" vertex="1" parent="qDr4mBQl2xViQqBpSmpq-1">
          <mxGeometry y="63" width="50" height="40" as="geometry" />
        </mxCell>
        <mxCell id="qDr4mBQl2xViQqBpSmpq-28" value="" style="endArrow=none;html=1;rounded=0;entryX=1;entryY=0;entryDx=0;entryDy=0;" edge="1" parent="qDr4mBQl2xViQqBpSmpq-1" target="qDr4mBQl2xViQqBpSmpq-11">
          <mxGeometry width="50" height="50" relative="1" as="geometry">
            <mxPoint x="50" y="110" as="sourcePoint" />
            <mxPoint x="126" y="-30" as="targetPoint" />
          </mxGeometry>
        </mxCell>
        <mxCell id="qDr4mBQl2xViQqBpSmpq-31" value="&lt;u&gt;oktató neptunkód&lt;/u&gt;" style="text;html=1;align=center;verticalAlign=middle;resizable=0;points=[];autosize=1;strokeColor=none;fillColor=none;" vertex="1" parent="qDr4mBQl2xViQqBpSmpq-1">
          <mxGeometry x="40" y="28" width="120" height="30" as="geometry" />
        </mxCell>
        <mxCell id="qDr4mBQl2xViQqBpSmpq-32" value="tárgy neptunkód" style="text;html=1;align=center;verticalAlign=middle;whiteSpace=wrap;rounded=0;" vertex="1" parent="qDr4mBQl2xViQqBpSmpq-1">
          <mxGeometry x="80" y="73" width="60" height="30" as="geometry" />
        </mxCell>
        <mxCell id="qDr4mBQl2xViQqBpSmpq-33" value="&lt;u&gt;C(6)&lt;/u&gt;" style="text;html=1;align=center;verticalAlign=middle;whiteSpace=wrap;rounded=0;" vertex="1" parent="qDr4mBQl2xViQqBpSmpq-1">
          <mxGeometry x="149" y="23" width="60" height="30" as="geometry" />
        </mxCell>
        <mxCell id="qDr4mBQl2xViQqBpSmpq-34" value="C(6)" style="text;html=1;align=center;verticalAlign=middle;whiteSpace=wrap;rounded=0;" vertex="1" parent="qDr4mBQl2xViQqBpSmpq-1">
          <mxGeometry x="160" y="73" width="60" height="30" as="geometry" />
        </mxCell>
        <mxCell id="qDr4mBQl2xViQqBpSmpq-2" value="Tárgy" style="swimlane;whiteSpace=wrap;html=1;startSize=30;" vertex="1" parent="1">
          <mxGeometry x="640" y="-190" width="200" height="200" as="geometry" />
        </mxCell>
        <mxCell id="qDr4mBQl2xViQqBpSmpq-10" value="PK" style="text;whiteSpace=wrap;html=1;align=center;" vertex="1" parent="qDr4mBQl2xViQqBpSmpq-2">
          <mxGeometry y="30" width="50" height="40" as="geometry" />
        </mxCell>
        <mxCell id="qDr4mBQl2xViQqBpSmpq-16" value="&lt;u&gt;neptunkód&lt;/u&gt;" style="text;html=1;align=center;verticalAlign=middle;whiteSpace=wrap;rounded=0;" vertex="1" parent="qDr4mBQl2xViQqBpSmpq-2">
          <mxGeometry x="60" y="35" width="60" height="30" as="geometry" />
        </mxCell>
        <mxCell id="qDr4mBQl2xViQqBpSmpq-17" value="név" style="text;html=1;align=center;verticalAlign=middle;whiteSpace=wrap;rounded=0;" vertex="1" parent="qDr4mBQl2xViQqBpSmpq-2">
          <mxGeometry x="60" y="80" width="60" height="30" as="geometry" />
        </mxCell>
        <mxCell id="qDr4mBQl2xViQqBpSmpq-18" value="kredit" style="text;html=1;align=center;verticalAlign=middle;whiteSpace=wrap;rounded=0;" vertex="1" parent="qDr4mBQl2xViQqBpSmpq-2">
          <mxGeometry x="60" y="110" width="60" height="30" as="geometry" />
        </mxCell>
        <mxCell id="qDr4mBQl2xViQqBpSmpq-19" value="lezárás módja" style="text;html=1;align=center;verticalAlign=middle;whiteSpace=wrap;rounded=0;" vertex="1" parent="qDr4mBQl2xViQqBpSmpq-2">
          <mxGeometry x="60" y="160" width="60" height="30" as="geometry" />
        </mxCell>
        <mxCell id="qDr4mBQl2xViQqBpSmpq-20" value="C6" style="text;html=1;align=center;verticalAlign=middle;whiteSpace=wrap;rounded=0;fontStyle=4" vertex="1" parent="qDr4mBQl2xViQqBpSmpq-2">
          <mxGeometry x="130" y="30" width="70" height="35" as="geometry" />
        </mxCell>
        <mxCell id="qDr4mBQl2xViQqBpSmpq-23" value="N" style="text;html=1;align=center;verticalAlign=middle;whiteSpace=wrap;rounded=0;" vertex="1" parent="qDr4mBQl2xViQqBpSmpq-2">
          <mxGeometry x="140" y="110" width="60" height="30" as="geometry" />
        </mxCell>
        <mxCell id="qDr4mBQl2xViQqBpSmpq-25" value="" style="endArrow=none;html=1;rounded=0;entryX=0.25;entryY=0;entryDx=0;entryDy=0;" edge="1" parent="qDr4mBQl2xViQqBpSmpq-2" target="qDr4mBQl2xViQqBpSmpq-20">
          <mxGeometry width="50" height="50" relative="1" as="geometry">
            <mxPoint x="148" y="200" as="sourcePoint" />
            <mxPoint x="-200" y="-20" as="targetPoint" />
          </mxGeometry>
        </mxCell>
        <mxCell id="qDr4mBQl2xViQqBpSmpq-27" value="C25" style="text;html=1;align=center;verticalAlign=middle;resizable=0;points=[];autosize=1;strokeColor=none;fillColor=none;" vertex="1" parent="qDr4mBQl2xViQqBpSmpq-2">
          <mxGeometry x="145" y="70" width="50" height="30" as="geometry" />
        </mxCell>
        <mxCell id="qDr4mBQl2xViQqBpSmpq-4" value="Oktató" style="swimlane;whiteSpace=wrap;html=1;startSize=30;" vertex="1" parent="1">
          <mxGeometry x="-60" y="-180" width="220" height="200" as="geometry" />
        </mxCell>
        <mxCell id="qDr4mBQl2xViQqBpSmpq-7" value="" style="endArrow=none;html=1;rounded=0;" edge="1" parent="qDr4mBQl2xViQqBpSmpq-4">
          <mxGeometry width="50" height="50" relative="1" as="geometry">
            <mxPoint x="40" y="198" as="sourcePoint" />
            <mxPoint x="40" y="28" as="targetPoint" />
          </mxGeometry>
        </mxCell>
        <mxCell id="qDr4mBQl2xViQqBpSmpq-9" value="FK" style="text;whiteSpace=wrap;html=1;" vertex="1" parent="qDr4mBQl2xViQqBpSmpq-4">
          <mxGeometry x="10" y="70" width="50" height="40" as="geometry" />
        </mxCell>
        <mxCell id="qDr4mBQl2xViQqBpSmpq-39" value="&lt;u&gt;neptunkód&lt;/u&gt;" style="text;html=1;align=center;verticalAlign=middle;whiteSpace=wrap;rounded=0;" vertex="1" parent="qDr4mBQl2xViQqBpSmpq-4">
          <mxGeometry x="70" y="30" width="60" height="30" as="geometry" />
        </mxCell>
        <mxCell id="qDr4mBQl2xViQqBpSmpq-40" value="Tanszék kód" style="text;html=1;align=center;verticalAlign=middle;whiteSpace=wrap;rounded=0;" vertex="1" parent="qDr4mBQl2xViQqBpSmpq-4">
          <mxGeometry x="60" y="75" width="60" height="30" as="geometry" />
        </mxCell>
        <mxCell id="qDr4mBQl2xViQqBpSmpq-41" value="név" style="text;html=1;align=center;verticalAlign=middle;whiteSpace=wrap;rounded=0;" vertex="1" parent="qDr4mBQl2xViQqBpSmpq-4">
          <mxGeometry x="60" y="110" width="60" height="30" as="geometry" />
        </mxCell>
        <mxCell id="qDr4mBQl2xViQqBpSmpq-42" value="beosztás" style="text;html=1;align=center;verticalAlign=middle;whiteSpace=wrap;rounded=0;" vertex="1" parent="qDr4mBQl2xViQqBpSmpq-4">
          <mxGeometry x="60" y="150" width="60" height="30" as="geometry" />
        </mxCell>
        <mxCell id="qDr4mBQl2xViQqBpSmpq-46" value="&lt;u&gt;C(6)&lt;/u&gt;" style="text;html=1;align=center;verticalAlign=middle;whiteSpace=wrap;rounded=0;" vertex="1" parent="qDr4mBQl2xViQqBpSmpq-4">
          <mxGeometry x="140" y="30" width="60" height="30" as="geometry" />
        </mxCell>
        <mxCell id="qDr4mBQl2xViQqBpSmpq-48" value="" style="endArrow=none;html=1;rounded=0;exitX=0.25;exitY=0;exitDx=0;exitDy=0;" edge="1" parent="qDr4mBQl2xViQqBpSmpq-4" source="qDr4mBQl2xViQqBpSmpq-46">
          <mxGeometry width="50" height="50" relative="1" as="geometry">
            <mxPoint x="360" y="-50" as="sourcePoint" />
            <mxPoint x="155" y="200" as="targetPoint" />
            <Array as="points" />
          </mxGeometry>
        </mxCell>
        <mxCell id="qDr4mBQl2xViQqBpSmpq-50" value="C(10)" style="text;whiteSpace=wrap;html=1;" vertex="1" parent="qDr4mBQl2xViQqBpSmpq-4">
          <mxGeometry x="160" y="75" width="60" height="40" as="geometry" />
        </mxCell>
        <mxCell id="qDr4mBQl2xViQqBpSmpq-51" value="C(25)" style="text;whiteSpace=wrap;html=1;" vertex="1" parent="qDr4mBQl2xViQqBpSmpq-4">
          <mxGeometry x="160" y="110" width="60" height="40" as="geometry" />
        </mxCell>
        <mxCell id="qDr4mBQl2xViQqBpSmpq-52" value="C(20)" style="text;whiteSpace=wrap;html=1;" vertex="1" parent="qDr4mBQl2xViQqBpSmpq-4">
          <mxGeometry x="160" y="150" width="60" height="40" as="geometry" />
        </mxCell>
        <mxCell id="qDr4mBQl2xViQqBpSmpq-47" value="" style="endArrow=none;html=1;rounded=0;" edge="1" parent="qDr4mBQl2xViQqBpSmpq-4">
          <mxGeometry width="50" height="50" relative="1" as="geometry">
            <mxPoint y="60" as="sourcePoint" />
            <mxPoint x="220" y="60" as="targetPoint" />
          </mxGeometry>
        </mxCell>
        <mxCell id="qDr4mBQl2xViQqBpSmpq-5" value="Tanszék" style="swimlane;whiteSpace=wrap;html=1;" vertex="1" parent="1">
          <mxGeometry x="-60" y="-470" width="200" height="130" as="geometry" />
        </mxCell>
        <mxCell id="qDr4mBQl2xViQqBpSmpq-77" value="név" style="text;html=1;align=center;verticalAlign=middle;resizable=0;points=[];autosize=1;strokeColor=none;fillColor=none;" vertex="1" parent="qDr4mBQl2xViQqBpSmpq-5">
          <mxGeometry x="80" y="70" width="40" height="30" as="geometry" />
        </mxCell>
        <mxCell id="qDr4mBQl2xViQqBpSmpq-83" value="C(30)" style="text;html=1;align=center;verticalAlign=middle;resizable=0;points=[];autosize=1;strokeColor=none;fillColor=none;" vertex="1" parent="qDr4mBQl2xViQqBpSmpq-5">
          <mxGeometry x="145" y="70" width="50" height="30" as="geometry" />
        </mxCell>
        <mxCell id="qDr4mBQl2xViQqBpSmpq-84" value="C(30)" style="text;html=1;align=center;verticalAlign=middle;resizable=0;points=[];autosize=1;strokeColor=none;fillColor=none;" vertex="1" parent="qDr4mBQl2xViQqBpSmpq-5">
          <mxGeometry x="145" y="100" width="50" height="30" as="geometry" />
        </mxCell>
        <mxCell id="qDr4mBQl2xViQqBpSmpq-13" value="" style="endArrow=none;html=1;rounded=0;entryX=0.75;entryY=0;entryDx=0;entryDy=0;" edge="1" parent="1" target="qDr4mBQl2xViQqBpSmpq-10">
          <mxGeometry width="50" height="50" relative="1" as="geometry">
            <mxPoint x="678" y="10" as="sourcePoint" />
            <mxPoint x="440" y="-210" as="targetPoint" />
          </mxGeometry>
        </mxCell>
        <mxCell id="qDr4mBQl2xViQqBpSmpq-14" value="" style="endArrow=none;html=1;rounded=0;exitX=0;exitY=1;exitDx=0;exitDy=0;" edge="1" parent="1" source="qDr4mBQl2xViQqBpSmpq-10">
          <mxGeometry width="50" height="50" relative="1" as="geometry">
            <mxPoint x="390" y="-160" as="sourcePoint" />
            <mxPoint x="840" y="-120" as="targetPoint" />
          </mxGeometry>
        </mxCell>
        <mxCell id="qDr4mBQl2xViQqBpSmpq-26" value="C10" style="text;html=1;align=center;verticalAlign=middle;resizable=0;points=[];autosize=1;strokeColor=none;fillColor=none;" vertex="1" parent="1">
          <mxGeometry x="785" y="-32" width="50" height="30" as="geometry" />
        </mxCell>
        <mxCell id="qDr4mBQl2xViQqBpSmpq-35" value="" style="endArrow=none;html=1;rounded=0;entryX=0.25;entryY=0;entryDx=0;entryDy=0;" edge="1" parent="1" target="qDr4mBQl2xViQqBpSmpq-33">
          <mxGeometry width="50" height="50" relative="1" as="geometry">
            <mxPoint x="444" y="-70" as="sourcePoint" />
            <mxPoint x="440" y="-200" as="targetPoint" />
          </mxGeometry>
        </mxCell>
        <mxCell id="qDr4mBQl2xViQqBpSmpq-36" value="" style="endArrow=none;html=1;rounded=0;exitX=0;exitY=0;exitDx=0;exitDy=0;" edge="1" parent="1" source="qDr4mBQl2xViQqBpSmpq-12">
          <mxGeometry width="50" height="50" relative="1" as="geometry">
            <mxPoint x="390" y="-150" as="sourcePoint" />
            <mxPoint x="500" y="-117" as="targetPoint" />
          </mxGeometry>
        </mxCell>
        <mxCell id="qDr4mBQl2xViQqBpSmpq-53" value="" style="endArrow=classic;html=1;rounded=0;entryX=0;entryY=0.5;entryDx=0;entryDy=0;exitX=1;exitY=0.25;exitDx=0;exitDy=0;" edge="1" parent="1" source="qDr4mBQl2xViQqBpSmpq-34" target="qDr4mBQl2xViQqBpSmpq-10">
          <mxGeometry width="50" height="50" relative="1" as="geometry">
            <mxPoint x="390" y="-160" as="sourcePoint" />
            <mxPoint x="440" y="-210" as="targetPoint" />
            <Array as="points">
              <mxPoint x="560" y="-100" />
              <mxPoint x="560" y="-140" />
            </Array>
          </mxGeometry>
        </mxCell>
        <mxCell id="qDr4mBQl2xViQqBpSmpq-54" value="" style="endArrow=classic;html=1;rounded=0;entryX=1;entryY=0.25;entryDx=0;entryDy=0;" edge="1" parent="1" target="qDr4mBQl2xViQqBpSmpq-34">
          <mxGeometry width="50" height="50" relative="1" as="geometry">
            <mxPoint x="560" y="-100" as="sourcePoint" />
            <mxPoint x="440" y="-210" as="targetPoint" />
          </mxGeometry>
        </mxCell>
        <mxCell id="qDr4mBQl2xViQqBpSmpq-55" value="" style="endArrow=classic;html=1;rounded=0;" edge="1" parent="1">
          <mxGeometry width="50" height="50" relative="1" as="geometry">
            <mxPoint x="560" y="-100" as="sourcePoint" />
            <mxPoint x="510" y="-100" as="targetPoint" />
          </mxGeometry>
        </mxCell>
        <mxCell id="qDr4mBQl2xViQqBpSmpq-68" value="PK" style="text;whiteSpace=wrap;html=1;" vertex="1" parent="1">
          <mxGeometry x="-50" y="-140" width="50" height="40" as="geometry" />
        </mxCell>
        <mxCell id="qDr4mBQl2xViQqBpSmpq-71" value="PK" style="text;html=1;align=center;verticalAlign=middle;resizable=0;points=[];autosize=1;strokeColor=none;fillColor=none;" vertex="1" parent="1">
          <mxGeometry x="-50" y="-442" width="40" height="30" as="geometry" />
        </mxCell>
        <mxCell id="qDr4mBQl2xViQqBpSmpq-72" value="&lt;u&gt;kód&lt;/u&gt;" style="text;html=1;align=center;verticalAlign=middle;resizable=0;points=[];autosize=1;strokeColor=none;fillColor=none;" vertex="1" parent="1">
          <mxGeometry x="20" y="-442" width="40" height="30" as="geometry" />
        </mxCell>
        <mxCell id="qDr4mBQl2xViQqBpSmpq-73" value="&lt;u&gt;C(10)&lt;/u&gt;" style="text;html=1;align=center;verticalAlign=middle;resizable=0;points=[];autosize=1;strokeColor=none;fillColor=none;" vertex="1" parent="1">
          <mxGeometry x="85" y="-442" width="50" height="30" as="geometry" />
        </mxCell>
        <mxCell id="qDr4mBQl2xViQqBpSmpq-74" value="" style="endArrow=none;html=1;rounded=0;exitX=0.75;exitY=1;exitDx=0;exitDy=0;" edge="1" parent="1" source="qDr4mBQl2xViQqBpSmpq-5">
          <mxGeometry width="50" height="50" relative="1" as="geometry">
            <mxPoint x="380" y="-150" as="sourcePoint" />
            <mxPoint x="90" y="-450" as="targetPoint" />
          </mxGeometry>
        </mxCell>
        <mxCell id="qDr4mBQl2xViQqBpSmpq-75" value="" style="endArrow=none;html=1;rounded=0;exitX=0;exitY=0.5;exitDx=0;exitDy=0;entryX=1;entryY=0.5;entryDx=0;entryDy=0;" edge="1" parent="1" source="qDr4mBQl2xViQqBpSmpq-5" target="qDr4mBQl2xViQqBpSmpq-5">
          <mxGeometry width="50" height="50" relative="1" as="geometry">
            <mxPoint x="380" y="-150" as="sourcePoint" />
            <mxPoint x="430" y="-200" as="targetPoint" />
          </mxGeometry>
        </mxCell>
        <mxCell id="qDr4mBQl2xViQqBpSmpq-76" value="" style="endArrow=none;html=1;rounded=0;" edge="1" parent="1">
          <mxGeometry width="50" height="50" relative="1" as="geometry">
            <mxPoint y="-450" as="sourcePoint" />
            <mxPoint y="-340" as="targetPoint" />
          </mxGeometry>
        </mxCell>
        <mxCell id="qDr4mBQl2xViQqBpSmpq-78" value="kar" style="text;html=1;align=center;verticalAlign=middle;resizable=0;points=[];autosize=1;strokeColor=none;fillColor=none;" vertex="1" parent="1">
          <mxGeometry x="20" y="-370" width="40" height="30" as="geometry" />
        </mxCell>
        <mxCell id="qDr4mBQl2xViQqBpSmpq-85" value="" style="endArrow=classic;html=1;rounded=0;entryX=0;entryY=0.25;entryDx=0;entryDy=0;" edge="1" parent="1" target="qDr4mBQl2xViQqBpSmpq-4">
          <mxGeometry width="50" height="50" relative="1" as="geometry">
            <mxPoint x="140" y="-420" as="sourcePoint" />
            <mxPoint x="-120" y="-130" as="targetPoint" />
            <Array as="points">
              <mxPoint x="240" y="-420" />
              <mxPoint x="240" y="-240" />
              <mxPoint x="-120" y="-240" />
              <mxPoint x="-120" y="-130" />
            </Array>
          </mxGeometry>
        </mxCell>
        <mxCell id="qDr4mBQl2xViQqBpSmpq-86" value="" style="endArrow=classic;html=1;rounded=0;" edge="1" parent="1">
          <mxGeometry width="50" height="50" relative="1" as="geometry">
            <mxPoint x="240" y="-420" as="sourcePoint" />
            <mxPoint x="140" y="-420" as="targetPoint" />
          </mxGeometry>
        </mxCell>
        <mxCell id="qDr4mBQl2xViQqBpSmpq-87" value="" style="endArrow=classic;html=1;rounded=0;" edge="1" parent="1">
          <mxGeometry width="50" height="50" relative="1" as="geometry">
            <mxPoint x="-120" y="-130" as="sourcePoint" />
            <mxPoint x="-70" y="-130" as="targetPoint" />
          </mxGeometry>
        </mxCell>
        <mxCell id="qDr4mBQl2xViQqBpSmpq-88" value="" style="endArrow=classic;html=1;rounded=0;entryX=0;entryY=0.5;entryDx=0;entryDy=0;" edge="1" parent="1" target="qDr4mBQl2xViQqBpSmpq-11">
          <mxGeometry width="50" height="50" relative="1" as="geometry">
            <mxPoint x="160" y="-140" as="sourcePoint" />
            <mxPoint x="320" y="-200" as="targetPoint" />
            <Array as="points" />
          </mxGeometry>
        </mxCell>
        <mxCell id="qDr4mBQl2xViQqBpSmpq-90" value="" style="endArrow=classic;html=1;rounded=0;" edge="1" parent="1">
          <mxGeometry width="50" height="50" relative="1" as="geometry">
            <mxPoint x="220" y="-140" as="sourcePoint" />
            <mxPoint x="160" y="-140" as="targetPoint" />
          </mxGeometry>
        </mxCell>
        <mxCell id="qDr4mBQl2xViQqBpSmpq-92" value="" style="endArrow=classic;html=1;rounded=0;" edge="1" parent="1">
          <mxGeometry width="50" height="50" relative="1" as="geometry">
            <mxPoint x="220" y="-140" as="sourcePoint" />
            <mxPoint x="270" y="-140" as="targetPoint" />
          </mxGeometry>
        </mxCell>
      </root>
    </mxGraphModel>
  </diagram>
</mxfile>
